<svg width="12" height="15" viewBox="0 0 12 15" fill="none" xmlns="http://www.w3.org/2000/svg">
<path d="M11 6.31818C11 10.4545 6 14 6 14C6 14 1 10.4545 1 6.31818C1 4.90771 1.52678 3.55501 2.46447 2.55766C3.40215 1.56031 4.67392 1 6 1C7.32608 1 8.59785 1.56031 9.53553 2.55766C10.4732 3.55501 11 4.90771 11 6.31818Z" stroke="white" stroke-linecap="round" stroke-linejoin="round"/>
<path d="M6 8.09091C6.92047 8.09091 7.66667 7.29723 7.66667 6.31818C7.66667 5.33913 6.92047 4.54545 6 4.54545C5.07953 4.54545 4.33333 5.33913 4.33333 6.31818C4.33333 7.29723 5.07953 8.09091 6 8.09091Z" stroke="white" stroke-linecap="round" stroke-linejoin="round"/>
</svg>
