<svg width="20" height="19" viewBox="0 0 20 19" fill="none" xmlns="http://www.w3.org/2000/svg">
<path d="M1.1665 0.833496H4.49984L6.73317 11.9918C6.80937 12.3755 7.01809 12.7201 7.32279 12.9654C7.62749 13.2107 8.00875 13.341 8.39984 13.3335H16.4998C16.8909 13.341 17.2722 13.2107 17.5769 12.9654C17.8816 12.7201 18.0903 12.3755 18.1665 11.9918L19.4998 5.00016H5.33317M8.6665 17.5002C8.6665 17.9604 8.29341 18.3335 7.83317 18.3335C7.37293 18.3335 6.99984 17.9604 6.99984 17.5002C6.99984 17.0399 7.37293 16.6668 7.83317 16.6668C8.29341 16.6668 8.6665 17.0399 8.6665 17.5002ZM17.8332 17.5002C17.8332 17.9604 17.4601 18.3335 16.9998 18.3335C16.5396 18.3335 16.1665 17.9604 16.1665 17.5002C16.1665 17.0399 16.5396 16.6668 16.9998 16.6668C17.4601 16.6668 17.8332 17.0399 17.8332 17.5002Z" stroke="black" stroke-linecap="round" stroke-linejoin="round"/>
</svg>
